# xmcd
#
# Track frame offsets:
#	150
#	17377
#	32739
#	48658
#	62582
#	79126
#	93531
#
# Disc length: 1442 seconds
# Revision: 0
# Processed by: cddbd v1.5.2PL0 Copyright (c) Steve Scherf et al.
# Submitted via: dBpowerAMP V12.0
#
DISCID=4f05a007
DTITLE=Amanda Shaw - Please, Call me MISS SHAW
DYEAR=2018
DGENRE=Country
TTITLE0=Lipstick Stain Blues
TTITLE1=Holiday
TTITLE2=How Lucky You Are
TTITLE3=Dirty Blonde
TTITLE4=Naked to the World
TTITLE5=Soulful Dress
TTITLE6=Wednesday Night Waltz
EXTD=
EXTT0=
EXTT1=
EXTT2=
EXTT3=
EXTT4=
EXTT5=
EXTT6=
PLAYORDER=
